<svg xmlns="http://www.w3.org/2000/svg" width="75" height="75" viewBox="0 0 75 75"><path fill="none" stroke="#FFF" stroke-width="3" stroke-miterlimit="10" d="M52.8 37.5c0 8.4-6.8 15.3-15.2 15.3-8.4 0-15.3-6.8-15.3-15.3 0-8.4 6.8-15.3 15.3-15.3 8.3.1 15.2 6.9 15.2 15.3z"/><path fill="#FFF" d="M5.4 37.5s.1-.3.4-.7c.3-.5.7-1.2 1.3-2 1.2-1.6 3.2-3.9 6-6 1.4-1.1 3-2.2 4.8-3.2.9-.5 1.8-1 2.8-1.4 1-.4 2-.9 3.1-1.2 1.1-.3 2.1-.7 3.3-1 1.1-.3 2.2-.6 3.4-.7 1.2-.1 2.3-.4 3.5-.4 1.2-.1 2.4-.1 3.6-.2 1.2.1 2.3.1 3.5.2 1.1 0 2.4.3 3.5.4 1.2.1 2.3.4 3.4.7 1.1.2 2.2.6 3.3 1 1.1.3 2.1.8 3.1 1.2 1 .4 1.9.9 2.8 1.4 1.8 1 3.4 2.1 4.8 3.2 2.8 2.2 4.7 4.4 6 6 .6.8 1 1.5 1.3 2 .3.5.4.7.4.7s-.2-.2-.5-.6c-.4-.4-.9-1-1.6-1.7-1.4-1.4-3.6-3.2-6.5-5-.7-.4-1.5-.9-2.3-1.3-.8-.4-1.6-.9-2.5-1.2-.9-.4-1.8-.8-2.7-1.1-1-.3-1.9-.7-2.9-1-1-.3-2-.6-3.1-.8-1.1-.2-2.1-.5-3.2-.6-.5-.1-1.1-.1-1.6-.2s-1.1-.1-1.7-.1c-1.1 0-2.3-.1-3.4-.1s-2.2.1-3.3.1c-1.1 0-2.2.2-3.3.3-1.1.1-2.2.4-3.2.6-1.1.2-2.1.5-3.1.8-1 .2-2 .6-2.9 1-1 .3-1.9.7-2.7 1.1-.9.4-1.7.8-2.5 1.2-.8.4-1.6.9-2.3 1.3-2.9 1.8-5.1 3.6-6.5 5-.7.7-1.3 1.3-1.6 1.7-.7.4-.9.6-.9.6z"/><path fill="#FFF" d="M5.4 37.3s.2.2.5.6c.4.4.9 1 1.6 1.7.7.7 1.6 1.5 2.7 2.4 1.1.9 2.4 1.8 3.8 2.7.7.4 1.5.9 2.3 1.3.8.4 1.6.9 2.5 1.3.9.4 1.8.8 2.7 1.1 1 .3 1.9.7 2.9 1 1 .3 2 .6 3.1.8 1.1.2 2.1.5 3.2.6 1.1.1 2.2.3 3.3.3 1.1 0 2.2.1 3.4.1 1.1 0 2.3-.1 3.4-.1.6 0 1.1-.1 1.7-.2.5-.1 1.1-.1 1.6-.2s1.1-.1 1.6-.3c.5-.1 1.1-.2 1.6-.3 1.1-.2 2.1-.5 3.1-.8 1-.2 2-.6 2.9-1 1-.3 1.9-.7 2.7-1.1.9-.4 1.7-.8 2.5-1.3.8-.4 1.6-.9 2.3-1.3 1.4-.9 2.7-1.8 3.8-2.7 1.1-.9 2-1.7 2.7-2.4.7-.7 1.3-1.3 1.6-1.7.4-.4.5-.6.5-.6s-.1.3-.4.7c-.3.5-.7 1.2-1.3 2-.6.8-1.4 1.8-2.4 2.8-1 1-2.2 2.2-3.6 3.3-1.4 1.1-3 2.2-4.8 3.2-.9.5-1.8 1-2.8 1.4-1 .4-2 .9-3.1 1.2-1.1.3-2.1.7-3.3 1-1.1.3-2.2.6-3.4.7-1.2.1-2.4.4-3.5.4-1.2.1-2.3.1-3.5.2-1.2-.1-2.4-.1-3.6-.2-1.2-.1-2.4-.3-3.5-.4-1.2-.1-2.3-.5-3.4-.7-1.1-.2-2.2-.6-3.3-1-1.1-.3-2.1-.8-3.1-1.2-1-.4-1.9-.9-2.8-1.4-1.8-1-3.4-2.1-4.8-3.2s-2.6-2.2-3.6-3.3c-1-1-1.8-2-2.4-2.8-.6-.8-1-1.5-1.3-2 0-.3-.1-.6-.1-.6z"/></svg>