<svg xmlns="http://www.w3.org/2000/svg" width="75" height="75" viewBox="0 0 75 75"><g fill="none" stroke="#000" stroke-width="2" stroke-miterlimit="10"><path d="M69.1 6.268c6.848 6.848 4.901 19.844-4.281 28.872-9.184 9.028-15.305.052-24.488.674-.232-10.194-9.364-16.473-.182-25.655 9.104-8.95 22.1-10.74 28.951-3.891zM15.478 56.463l-12.53-3.656 1.79-4.438M22.326 49.615l-12.53-3.659 1.79-4.435M29.097 42.688l-12.452-3.579 1.79-4.436M35.945 35.839l-12.452-3.578 1.79-4.437M40.459 40.354l1.09 11.053s3.656-2.258 5.758.311M33.766 47.046l1.09 11.052s3.658-2.257 5.757.312M27.073 53.739l1.09 11.053s3.656-2.26 5.758.31M20.302 60.51l1.09 11.053s3.657-2.258 5.758.31"/></g><g fill="none" stroke="#000" stroke-width=".75" stroke-miterlimit="10"><path d="M43.207 15.577l6.889 6.296 4.578-.798-1.136 3.947 6.362 5.971M51.946 11.881l4.492 4.106 3.516-.99-1.269 3.045 4.112 3.917M61.566 9.929l3.981-1.348-1.585 3.536M41.977 24.89l3.208 3.557 3.602-1.383-1.505 3.299 3.451 2.688"/></g></svg>