<svg xmlns="http://www.w3.org/2000/svg" width="75" height="75" viewBox="0 0 75 75"><path fill="none" stroke="#000" stroke-width="2" stroke-miterlimit="10" d="M69.615 67.87c-6.799 7.438-20.396 6.021-30.208-3.102-9.81-9.125-3.245-18.172-4.32-27.688 10.584-.718 19.163-8.234 29.135.882 9.725 9.047 12.191 22.472 5.393 29.908z"/><g fill="none" stroke="#000" stroke-width=".75" stroke-miterlimit="10"><path d="M58.103 39.816l-7.107 7.776.901 5.167-4.455-1.28-6.741 7.181M62.275 49.681l-4.635 5.07 1.118 3.969-3.437-1.433-4.422 4.643M64.479 60.54l1.522 4.492-3.992-1.789M47.591 38.428l-4.016 3.621 1.561 4.065-3.724-1.699-3.034 3.898M10.064 28.384l-.376-8.386 5.711-6.248 8.321-.304 6.176 5.646.442 8.314-5.711 6.247-8.387.376z"/></g><path fill="none" stroke="#000" stroke-width="2" stroke-miterlimit="10" d="M32.788 38.238s-9.31 2.038-11.165 4.067c0 0-10.109-6.76-12.223-8.692-2.197-2.008-7.695-10.758-7.695-10.758s5.743-7.47 7.597-9.499c2.01-2.197 8.628-8.249 8.628-8.249s9.236 5.341 11.263 7.195c2.198 2.009 9.421 11.248 9.421 11.248-1.777 1.944-2.589 10.977-2.589 10.977"/></svg>